<?xml version="1.0" standalone="no"?>
<!DOCTYPE svg PUBLIC "-//W3C//DTD SVG 20010904//EN"
 "http://www.w3.org/TR/2001/REC-SVG-20010904/DTD/svg10.dtd">
<svg version="1.0" xmlns="http://www.w3.org/2000/svg"
 width="458.000000pt" height="177.000000pt" viewBox="0 0 458.000000 177.000000"
 preserveAspectRatio="xMidYMid meet">

<g transform="translate(0.000000,177.000000) scale(0.100000,-0.100000)"
fill="#000000" stroke="none">
<path d="M794 1595 c-34 -7 -85 -25 -115 -40 -145 -73 -204 -160 -303 -448
-36 -105 -71 -186 -104 -240 -51 -84 -92 -188 -92 -232 0 -14 9 -34 20 -45 23
-23 49 -20 113 12 44 22 43 24 50 -85 10 -151 93 -275 231 -344 l69 -35 -35
49 c-51 69 -77 125 -110 233 -58 191 -74 522 -33 689 32 130 113 259 182 287
45 19 95 1 166 -60 30 -25 61 -46 70 -46 9 0 41 22 71 48 106 93 169 88 248
-17 62 -83 94 -168 113 -306 40 -281 -29 -670 -147 -837 -11 -16 -17 -28 -15
-28 3 0 29 11 60 25 68 31 139 93 172 149 31 53 65 183 65 248 0 26 4 48 10
48 5 0 24 -9 42 -20 39 -24 91 -26 108 -5 30 36 -13 175 -90 296 -20 31 -51
99 -69 150 -123 360 -175 440 -325 514 -112 55 -224 68 -352 40z"/>
<path d="M2031 1295 c-35 -8 -65 -16 -67 -18 -2 -1 -5 -188 -6 -414 l-3 -411
59 -6 c155 -16 223 3 307 88 61 62 94 125 119 227 52 219 -6 439 -136 515 -39
23 -61 28 -128 31 -46 1 -109 -4 -145 -12z m202 -152 c71 -76 97 -233 59 -360
-21 -68 -70 -157 -101 -180 -24 -19 -76 -12 -75 10 0 9 1 139 2 287 l2 270 43
0 c34 0 49 -6 70 -27z"/>
<path d="M3325 1305 c-5 -1 -36 -8 -69 -15 l-58 -12 6 -221 c4 -126 3 -302 -3
-407 -6 -101 -7 -188 -3 -192 5 -5 54 -11 108 -15 95 -5 104 -4 163 22 119 54
199 181 225 362 33 229 -43 416 -191 469 -33 12 -151 18 -178 9z m153 -168
c70 -72 94 -249 52 -372 -28 -81 -77 -155 -114 -170 -57 -24 -56 -28 -56 279
0 156 3 286 7 289 3 4 23 7 43 7 28 0 43 -8 68 -33z"/>
<path d="M2668 1113 c-116 -461 -169 -685 -164 -690 11 -11 150 -23 156 -13 4
6 15 56 24 111 21 118 25 122 140 117 l71 -3 13 -80 c7 -44 14 -80 15 -81 1
-1 39 -6 85 -11 65 -7 82 -6 82 4 0 7 -13 79 -29 160 -16 82 -43 220 -60 308
-63 325 -65 337 -81 345 -8 4 -58 10 -110 14 l-96 7 -46 -188z m177 -153 c35
-215 38 -200 -38 -200 -35 0 -66 2 -68 5 -5 5 51 300 66 345 10 32 9 35 40
-150z"/>
<path d="M3957 1293 c-3 -4 -28 -102 -57 -218 -28 -116 -75 -309 -105 -430
-30 -120 -53 -220 -51 -222 7 -8 151 -22 157 -16 4 5 16 55 26 113 22 120 19
117 136 119 78 1 81 -2 93 -107 l6 -60 80 -7 c43 -4 82 -4 85 -1 6 5 -21 159
-77 436 -11 52 -31 159 -46 237 l-27 143 -31 4 c-73 12 -184 17 -189 9z m128
-319 c13 -82 25 -162 27 -179 l3 -30 -67 -3 c-80 -3 -79 -6 -49 123 10 44 24
112 31 150 13 81 19 100 25 93 3 -3 16 -72 30 -154z"/>
<path d="M574 1230 c-30 -12 -37 -38 -15 -49 10 -6 21 -24 25 -41 17 -89 54
-120 142 -120 57 0 83 13 119 62 51 68 59 68 121 1 l54 -58 76 0 c71 0 77 2
100 28 13 15 27 46 30 68 4 23 15 49 25 58 17 15 17 20 5 37 -21 28 -183 33
-273 9 -63 -17 -92 -16 -168 4 -47 12 -211 13 -241 1z"/>
<path d="M825 763 c-70 -37 -95 -74 -140 -213 -15 -47 -33 -92 -39 -100 -21
-26 -36 -70 -36 -102 0 -29 1 -30 35 -24 34 7 35 6 35 -26 0 -18 11 -56 24
-84 21 -45 32 -55 82 -80 49 -24 71 -29 129 -28 132 1 211 61 222 169 l6 56
36 -3 c50 -4 51 16 3 120 -23 48 -48 113 -58 145 -37 127 -107 187 -215 187
-30 -1 -67 -8 -84 -17z m53 -88 c36 -30 37 -30 62 -5 11 11 32 23 47 26 22 6
31 2 54 -25 15 -18 29 -41 32 -51 5 -19 16 -18 -163 -18 -36 0 -86 0 -112 0
-55 -1 -60 10 -26 54 41 53 61 57 106 19z m-106 -120 c4 -15 13 -32 20 -36 26
-17 68 -9 90 16 27 31 31 31 63 -1 39 -39 84 -31 109 19 12 25 22 35 28 29 16
-16 21 -171 9 -236 -23 -125 -74 -185 -162 -194 -87 -8 -161 54 -189 159 -12
44 -15 226 -5 260 9 27 27 19 37 -16z"/>
</g>
</svg>
